<svg xmlns="http://www.w3.org/2000/svg" width="297" height="297"><style></style><path fill="#00b951" d="M10 10L12 10L12 12L10 12L10 10ZM10 25L12 25L12 27L10 27L10 25ZM25 10L27 10L27 12L25 12L25 10ZM25 25L27 25L27 27L25 27L25 25ZM10 40L12 40L12 42L10 42L10 40ZM10 55L12 55L12 57L10 57L10 55ZM25 40L27 40L27 42L25 42L25 40ZM25 55L27 55L27 57L25 57L25 55ZM10 70L12 70L12 72L10 72L10 70ZM10 85L12 85L12 87L10 87L10 85ZM25 70L27 70L27 72L25 72L25 70ZM25 85L27 85L27 87L25 87L25 85ZM10 100L12 100L12 102L10 102L10 100ZM10 115L12 115L12 117L10 117L10 115ZM25 100L27 100L27 102L25 102L25 100ZM25 115L27 115L27 117L25 117L25 115ZM10 130L12 130L12 132L10 132L10 130ZM10 145L12 145L12 147L10 147L10 145ZM25 130L27 130L27 132L25 132L25 130ZM25 145L27 145L27 147L25 147L25 145ZM40 10L42 10L42 12L40 12L40 10ZM40 25L42 25L42 27L40 27L40 25ZM55 10L57 10L57 12L55 12L55 10ZM55 25L57 25L57 27L55 27L55 25ZM70 10L72 10L72 12L70 12L70 10ZM70 25L72 25L72 27L70 27L70 25ZM85 10L87 10L87 12L85 12L85 10ZM85 25L87 25L87 27L85 27L85 25ZM100 10L102 10L102 12L100 12L100 10ZM100 25L102 25L102 27L100 27L100 25ZM115 10L117 10L117 12L115 12L115 10ZM115 25L117 25L117 27L115 27L115 25ZM130 10L132 10L132 12L130 12L130 10ZM130 25L132 25L132 27L130 27L130 25ZM145 10L147 10L147 12L145 12L145 10ZM145 25L147 25L147 27L145 27L145 25ZM40 40L42 40L42 42L40 42L40 40ZM40 55L42 55L42 57L40 57L40 55ZM55 40L57 40L57 42L55 42L55 40ZM55 55L57 55L57 57L55 57L55 55ZM40 70L42 70L42 72L40 72L40 70ZM40 85L42 85L42 87L40 87L40 85ZM55 70L57 70L57 72L55 72L55 70ZM55 85L57 85L57 87L55 87L55 85ZM70 40L72 40L72 42L70 42L70 40ZM70 55L72 55L72 57L70 57L70 55ZM85 40L87 40L87 42L85 42L85 40ZM85 55L87 55L87 57L85 57L85 55ZM70 70L72 70L72 72L70 72L70 70ZM70 85L72 85L72 87L70 87L70 85ZM85 70L87 70L87 72L85 72L85 70ZM85 85L87 85L87 87L85 87L85 85ZM40 100L42 100L42 102L40 102L40 100ZM40 115L42 115L42 117L40 117L40 115ZM55 100L57 100L57 102L55 102L55 100ZM55 115L57 115L57 117L55 117L55 115ZM40 130L42 130L42 132L40 132L40 130ZM40 145L42 145L42 147L40 147L40 145ZM55 130L57 130L57 132L55 132L55 130ZM55 145L57 145L57 147L55 147L55 145ZM70 100L72 100L72 102L70 102L70 100ZM70 115L72 115L72 117L70 117L70 115ZM85 100L87 100L87 102L85 102L85 100ZM85 115L87 115L87 117L85 117L85 115ZM70 130L72 130L72 132L70 132L70 130ZM70 145L72 145L72 147L70 147L70 145ZM85 130L87 130L87 132L85 132L85 130ZM85 145L87 145L87 147L85 147L85 145ZM100 40L102 40L102 42L100 42L100 40ZM100 55L102 55L102 57L100 57L100 55ZM115 40L117 40L117 42L115 42L115 40ZM115 55L117 55L117 57L115 57L115 55ZM100 70L102 70L102 72L100 72L100 70ZM100 85L102 85L102 87L100 87L100 85ZM115 70L117 70L117 72L115 72L115 70ZM115 85L117 85L117 87L115 87L115 85ZM130 40L132 40L132 42L130 42L130 40ZM130 55L132 55L132 57L130 57L130 55ZM145 40L147 40L147 42L145 42L145 40ZM145 55L147 55L147 57L145 57L145 55ZM130 70L132 70L132 72L130 72L130 70ZM130 85L132 85L132 87L130 87L130 85ZM145 70L147 70L147 72L145 72L145 70ZM145 85L147 85L147 87L145 87L145 85ZM100 100L102 100L102 102L100 102L100 100ZM100 115L102 115L102 117L100 117L100 115ZM115 100L117 100L117 102L115 102L115 100ZM115 115L117 115L117 117L115 117L115 115ZM100 130L102 130L102 132L100 132L100 130ZM100 145L102 145L102 147L100 147L100 145ZM115 130L117 130L117 132L115 132L115 130ZM115 145L117 145L117 147L115 147L115 145ZM130 100L132 100L132 102L130 102L130 100ZM130 115L132 115L132 117L130 117L130 115ZM145 100L147 100L147 102L145 102L145 100ZM145 115L147 115L147 117L145 117L145 115ZM130 130L132 130L132 132L130 132L130 130ZM130 145L132 145L132 147L130 147L130 145ZM145 130L147 130L147 132L145 132L145 130ZM145 145L147 145L147 147L145 147L145 145ZM10 160L12 160L12 162L10 162L10 160ZM10 175L12 175L12 177L10 177L10 175ZM25 160L27 160L27 162L25 162L25 160ZM25 175L27 175L27 177L25 177L25 175ZM10 190L12 190L12 192L10 192L10 190ZM10 205L12 205L12 207L10 207L10 205ZM25 190L27 190L27 192L25 192L25 190ZM25 205L27 205L27 207L25 207L25 205ZM10 220L12 220L12 222L10 222L10 220ZM10 235L12 235L12 237L10 237L10 235ZM25 220L27 220L27 222L25 222L25 220ZM25 235L27 235L27 237L25 237L25 235ZM10 250L12 250L12 252L10 252L10 250ZM10 265L12 265L12 267L10 267L10 265ZM25 250L27 250L27 252L25 252L25 250ZM25 265L27 265L27 267L25 267L25 265ZM10 280L12 280L12 282L10 282L10 280ZM10 295L12 295L12 297L10 297L10 295ZM25 280L27 280L27 282L25 282L25 280ZM40 160L42 160L42 162L40 162L40 160ZM40 175L42 175L42 177L40 177L40 175ZM55 160L57 160L57 162L55 162L55 160ZM55 175L57 175L57 177L55 177L55 175ZM40 190L42 190L42 192L40 192L40 190ZM40 205L42 205L42 207L40 207L40 205ZM55 190L57 190L57 192L55 192L55 190ZM55 205L57 205L57 207L55 207L55 205ZM70 160L72 160L72 162L70 162L70 160ZM70 175L72 175L72 177L70 177L70 175ZM85 160L87 160L87 162L85 162L85 160ZM85 175L87 175L87 177L85 177L85 175ZM70 190L72 190L72 192L70 192L70 190ZM70 205L72 205L72 207L70 207L70 205ZM85 190L87 190L87 192L85 192L85 190ZM85 205L87 205L87 207L85 207L85 205ZM40 220L42 220L42 222L40 222L40 220ZM40 235L42 235L42 237L40 237L40 235ZM55 220L57 220L57 222L55 222L55 220ZM55 235L57 235L57 237L55 237L55 235ZM40 250L42 250L42 252L40 252L40 250ZM40 265L42 265L42 267L40 267L40 265ZM55 250L57 250L57 252L55 252L55 250ZM70 220L72 220L72 222L70 222L70 220ZM70 235L72 235L72 237L70 237L70 235ZM85 220L87 220L87 222L85 222L85 220ZM100 160L102 160L102 162L100 162L100 160ZM100 175L102 175L102 177L100 177L100 175ZM115 160L117 160L117 162L115 162L115 160ZM115 175L117 175L117 177L115 177L115 175ZM100 190L102 190L102 192L100 192L100 190ZM100 205L102 205L102 207L100 207L100 205ZM115 190L117 190L117 192L115 192L115 190ZM130 160L132 160L132 162L130 162L130 160ZM130 175L132 175L132 177L130 177L130 175ZM145 160L147 160L147 162L145 162L145 160ZM160 10L162 10L162 12L160 12L160 10ZM160 25L162 25L162 27L160 27L160 25ZM175 10L177 10L177 12L175 12L175 10ZM175 25L177 25L177 27L175 27L175 25ZM190 10L192 10L192 12L190 12L190 10ZM190 25L192 25L192 27L190 27L190 25ZM205 10L207 10L207 12L205 12L205 10ZM205 25L207 25L207 27L205 27L205 25ZM220 10L222 10L222 12L220 12L220 10ZM220 25L222 25L222 27L220 27L220 25ZM235 10L237 10L237 12L235 12L235 10ZM235 25L237 25L237 27L235 27L235 25ZM250 10L252 10L252 12L250 12L250 10ZM250 25L252 25L252 27L250 27L250 25ZM265 10L267 10L267 12L265 12L265 10ZM265 25L267 25L267 27L265 27L265 25ZM160 40L162 40L162 42L160 42L160 40ZM160 55L162 55L162 57L160 57L160 55ZM175 40L177 40L177 42L175 42L175 40ZM175 55L177 55L177 57L175 57L175 55ZM160 70L162 70L162 72L160 72L160 70ZM160 85L162 85L162 87L160 87L160 85ZM175 70L177 70L177 72L175 72L175 70ZM175 85L177 85L177 87L175 87L175 85ZM190 40L192 40L192 42L190 42L190 40ZM190 55L192 55L192 57L190 57L190 55ZM205 40L207 40L207 42L205 42L205 40ZM205 55L207 55L207 57L205 57L205 55ZM190 70L192 70L192 72L190 72L190 70ZM190 85L192 85L192 87L190 87L190 85ZM205 70L207 70L207 72L205 72L205 70ZM205 85L207 85L207 87L205 87L205 85ZM160 100L162 100L162 102L160 102L160 100ZM160 115L162 115L162 117L160 117L160 115ZM175 100L177 100L177 102L175 102L175 100ZM175 115L177 115L177 117L175 117L175 115ZM160 130L162 130L162 132L160 132L160 130ZM160 145L162 145L162 147L160 147L160 145ZM175 130L177 130L177 132L175 132L175 130ZM190 100L192 100L192 102L190 102L190 100ZM190 115L192 115L192 117L190 117L190 115ZM205 100L207 100L207 102L205 102L205 100ZM220 40L222 40L222 42L220 42L220 40ZM220 55L222 55L222 57L220 57L220 55ZM235 40L237 40L237 42L235 42L235 40ZM235 55L237 55L237 57L235 57L235 55ZM220 70L222 70L222 72L220 72L220 70ZM220 85L222 85L222 87L220 87L220 85ZM235 70L237 70L237 72L235 72L235 70ZM250 40L252 40L252 42L250 42L250 40ZM250 55L252 55L252 57L250 57L250 55ZM265 40L267 40L267 42L265 42L265 40ZM280 10L282 10L282 12L280 12L280 10ZM280 25L282 25L282 27L280 27L280 25ZM295 10L297 10L297 12L295 12L295 10Z"/></svg>