<svg xmlns="http://www.w3.org/2000/svg" width="117" height="117" version="1.1" id="svg6"><style id="style2"/><path d="M107 10h-2v2h2zm0 15h-2v2h2zM92 10h-2v2h2zm0 15h-2v2h2zm15 15h-2v2h2zm0 15h-2v2h2zM92 40h-2v2h2zm0 15h-2v2h2zm15 15h-2v2h2zm0 15h-2v2h2zM92 70h-2v2h2zm0 15h-2v2h2zm15 15h-2v2h2zm0 15h-2v2h2zm-15-15h-2v2h2zM77 10h-2v2h2zm0 15h-2v2h2zM62 10h-2v2h2zm0 15h-2v2h2zM47 10h-2v2h2zm0 15h-2v2h2zM32 10h-2v2h2zm0 15h-2v2h2zM17 10h-2v2h2zm0 15h-2v2h2zM2 10H0v2h2zm75 30h-2v2h2zm0 15h-2v2h2zM62 40h-2v2h2zm0 15h-2v2h2zm15 15h-2v2h2zm0 15h-2v2h2zM62 70h-2v2h2zM47 40h-2v2h2zm0 15h-2v2h2zM32 40h-2v2h2z" id="path4" fill="#00b951"/><path id="path4522" d="M107 10h-2v2h2zm0 15h-2v2h2zM92 10h-2v2h2zm0 15h-2v2h2zm15 15h-2v2h2zm0 15h-2v2h2zM92 40h-2v2h2zm0 15h-2v2h2zm15 15h-2v2h2zm0 15h-2v2h2zM92 70h-2v2h2zm0 15h-2v2h2zm15 15h-2v2h2zm0 15h-2v2h2zm-15-15h-2v2h2zM77 10h-2v2h2zm0 15h-2v2h2zM62 10h-2v2h2zm0 15h-2v2h2zM47 10h-2v2h2zm0 15h-2v2h2zM32 10h-2v2h2zm0 15h-2v2h2zM17 10h-2v2h2zm0 15h-2v2h2zM2 10H0v2h2zm75 30h-2v2h2zm0 15h-2v2h2zM62 40h-2v2h2zm0 15h-2v2h2zm15 15h-2v2h2zm0 15h-2v2h2zM62 70h-2v2h2zM47 40h-2v2h2zm0 15h-2v2h2zM32 40h-2v2h2z" fill="#00b951"/></svg>