<svg xmlns="http://www.w3.org/2000/svg" width="297" height="297"><style></style><path fill="#00b951" d="M287 10L287 12L285 12L285 10L287 10ZM272 10L272 12L270 12L270 10L272 10ZM287 25L287 27L285 27L285 25L287 25ZM272 25L272 27L270 27L270 25L272 25ZM257 10L257 12L255 12L255 10L257 10ZM242 10L242 12L240 12L240 10L242 10ZM257 25L257 27L255 27L255 25L257 25ZM242 25L242 27L240 27L240 25L242 25ZM227 10L227 12L225 12L225 10L227 10ZM212 10L212 12L210 12L210 10L212 10ZM227 25L227 27L225 27L225 25L227 25ZM212 25L212 27L210 27L210 25L212 25ZM197 10L197 12L195 12L195 10L197 10ZM182 10L182 12L180 12L180 10L182 10ZM197 25L197 27L195 27L195 25L197 25ZM182 25L182 27L180 27L180 25L182 25ZM167 10L167 12L165 12L165 10L167 10ZM152 10L152 12L150 12L150 10L152 10ZM167 25L167 27L165 27L165 25L167 25ZM152 25L152 27L150 27L150 25L152 25ZM287 40L287 42L285 42L285 40L287 40ZM272 40L272 42L270 42L270 40L272 40ZM287 55L287 57L285 57L285 55L287 55ZM272 55L272 57L270 57L270 55L272 55ZM287 70L287 72L285 72L285 70L287 70ZM272 70L272 72L270 72L270 70L272 70ZM287 85L287 87L285 87L285 85L287 85ZM272 85L272 87L270 87L270 85L272 85ZM287 100L287 102L285 102L285 100L287 100ZM272 100L272 102L270 102L270 100L272 100ZM287 115L287 117L285 117L285 115L287 115ZM272 115L272 117L270 117L270 115L272 115ZM287 130L287 132L285 132L285 130L287 130ZM272 130L272 132L270 132L270 130L272 130ZM287 145L287 147L285 147L285 145L287 145ZM272 145L272 147L270 147L270 145L272 145ZM257 40L257 42L255 42L255 40L257 40ZM242 40L242 42L240 42L240 40L242 40ZM257 55L257 57L255 57L255 55L257 55ZM242 55L242 57L240 57L240 55L242 55ZM227 40L227 42L225 42L225 40L227 40ZM212 40L212 42L210 42L210 40L212 40ZM227 55L227 57L225 57L225 55L227 55ZM212 55L212 57L210 57L210 55L212 55ZM257 70L257 72L255 72L255 70L257 70ZM242 70L242 72L240 72L240 70L242 70ZM257 85L257 87L255 87L255 85L257 85ZM242 85L242 87L240 87L240 85L242 85ZM227 70L227 72L225 72L225 70L227 70ZM212 70L212 72L210 72L210 70L212 70ZM227 85L227 87L225 87L225 85L227 85ZM212 85L212 87L210 87L210 85L212 85ZM197 40L197 42L195 42L195 40L197 40ZM182 40L182 42L180 42L180 40L182 40ZM197 55L197 57L195 57L195 55L197 55ZM182 55L182 57L180 57L180 55L182 55ZM167 40L167 42L165 42L165 40L167 40ZM152 40L152 42L150 42L150 40L152 40ZM167 55L167 57L165 57L165 55L167 55ZM152 55L152 57L150 57L150 55L152 55ZM197 70L197 72L195 72L195 70L197 70ZM182 70L182 72L180 72L180 70L182 70ZM197 85L197 87L195 87L195 85L197 85ZM182 85L182 87L180 87L180 85L182 85ZM167 70L167 72L165 72L165 70L167 70ZM152 70L152 72L150 72L150 70L152 70ZM167 85L167 87L165 87L165 85L167 85ZM152 85L152 87L150 87L150 85L152 85ZM257 100L257 102L255 102L255 100L257 100ZM242 100L242 102L240 102L240 100L242 100ZM257 115L257 117L255 117L255 115L257 115ZM242 115L242 117L240 117L240 115L242 115ZM227 100L227 102L225 102L225 100L227 100ZM212 100L212 102L210 102L210 100L212 100ZM227 115L227 117L225 117L225 115L227 115ZM212 115L212 117L210 117L210 115L212 115ZM257 130L257 132L255 132L255 130L257 130ZM242 130L242 132L240 132L240 130L242 130ZM257 145L257 147L255 147L255 145L257 145ZM242 145L242 147L240 147L240 145L242 145ZM227 130L227 132L225 132L225 130L227 130ZM212 130L212 132L210 132L210 130L212 130ZM227 145L227 147L225 147L225 145L227 145ZM212 145L212 147L210 147L210 145L212 145ZM197 100L197 102L195 102L195 100L197 100ZM182 100L182 102L180 102L180 100L182 100ZM197 115L197 117L195 117L195 115L197 115ZM182 115L182 117L180 117L180 115L182 115ZM167 100L167 102L165 102L165 100L167 100ZM152 100L152 102L150 102L150 100L152 100ZM167 115L167 117L165 117L165 115L167 115ZM152 115L152 117L150 117L150 115L152 115ZM197 130L197 132L195 132L195 130L197 130ZM182 130L182 132L180 132L180 130L182 130ZM197 145L197 147L195 147L195 145L197 145ZM182 145L182 147L180 147L180 145L182 145ZM167 130L167 132L165 132L165 130L167 130ZM152 130L152 132L150 132L150 130L152 130ZM167 145L167 147L165 147L165 145L167 145ZM152 145L152 147L150 147L150 145L152 145ZM137 10L137 12L135 12L135 10L137 10ZM122 10L122 12L120 12L120 10L122 10ZM137 25L137 27L135 27L135 25L137 25ZM122 25L122 27L120 27L120 25L122 25ZM107 10L107 12L105 12L105 10L107 10ZM92 10L92 12L90 12L90 10L92 10ZM107 25L107 27L105 27L105 25L107 25ZM92 25L92 27L90 27L90 25L92 25ZM77 10L77 12L75 12L75 10L77 10ZM62 10L62 12L60 12L60 10L62 10ZM77 25L77 27L75 27L75 25L77 25ZM62 25L62 27L60 27L60 25L62 25ZM47 10L47 12L45 12L45 10L47 10ZM32 10L32 12L30 12L30 10L32 10ZM47 25L47 27L45 27L45 25L47 25ZM32 25L32 27L30 27L30 25L32 25ZM17 10L17 12L15 12L15 10L17 10ZM2 10L2 12L0 12L0 10L2 10ZM17 25L17 27L15 27L15 25L17 25ZM137 40L137 42L135 42L135 40L137 40ZM122 40L122 42L120 42L120 40L122 40ZM137 55L137 57L135 57L135 55L137 55ZM122 55L122 57L120 57L120 55L122 55ZM107 40L107 42L105 42L105 40L107 40ZM92 40L92 42L90 42L90 40L92 40ZM107 55L107 57L105 57L105 55L107 55ZM92 55L92 57L90 57L90 55L92 55ZM137 70L137 72L135 72L135 70L137 70ZM122 70L122 72L120 72L120 70L122 70ZM137 85L137 87L135 87L135 85L137 85ZM122 85L122 87L120 87L120 85L122 85ZM107 70L107 72L105 72L105 70L107 70ZM92 70L92 72L90 72L90 70L92 70ZM107 85L107 87L105 87L105 85L107 85ZM92 85L92 87L90 87L90 85L92 85ZM77 40L77 42L75 42L75 40L77 40ZM62 40L62 42L60 42L60 40L62 40ZM77 55L77 57L75 57L75 55L77 55ZM62 55L62 57L60 57L60 55L62 55ZM47 40L47 42L45 42L45 40L47 40ZM32 40L32 42L30 42L30 40L32 40ZM47 55L47 57L45 57L45 55L47 55ZM77 70L77 72L75 72L75 70L77 70ZM62 70L62 72L60 72L60 70L62 70ZM77 85L77 87L75 87L75 85L77 85ZM137 100L137 102L135 102L135 100L137 100ZM122 100L122 102L120 102L120 100L122 100ZM137 115L137 117L135 117L135 115L137 115ZM122 115L122 117L120 117L120 115L122 115ZM107 100L107 102L105 102L105 100L107 100ZM92 100L92 102L90 102L90 100L92 100ZM107 115L107 117L105 117L105 115L107 115ZM137 130L137 132L135 132L135 130L137 130ZM122 130L122 132L120 132L120 130L122 130ZM137 145L137 147L135 147L135 145L137 145ZM287 160L287 162L285 162L285 160L287 160ZM272 160L272 162L270 162L270 160L272 160ZM287 175L287 177L285 177L285 175L287 175ZM272 175L272 177L270 177L270 175L272 175ZM287 190L287 192L285 192L285 190L287 190ZM272 190L272 192L270 192L270 190L272 190ZM287 205L287 207L285 207L285 205L287 205ZM272 205L272 207L270 207L270 205L272 205ZM287 220L287 222L285 222L285 220L287 220ZM272 220L272 222L270 222L270 220L272 220ZM287 235L287 237L285 237L285 235L287 235ZM272 235L272 237L270 237L270 235L272 235ZM287 250L287 252L285 252L285 250L287 250ZM272 250L272 252L270 252L270 250L272 250ZM287 265L287 267L285 267L285 265L287 265ZM272 265L272 267L270 267L270 265L272 265ZM257 160L257 162L255 162L255 160L257 160ZM242 160L242 162L240 162L240 160L242 160ZM257 175L257 177L255 177L255 175L257 175ZM242 175L242 177L240 177L240 175L242 175ZM227 160L227 162L225 162L225 160L227 160ZM212 160L212 162L210 162L210 160L212 160ZM227 175L227 177L225 177L225 175L227 175ZM212 175L212 177L210 177L210 175L212 175ZM257 190L257 192L255 192L255 190L257 190ZM242 190L242 192L240 192L240 190L242 190ZM257 205L257 207L255 207L255 205L257 205ZM242 205L242 207L240 207L240 205L242 205ZM227 190L227 192L225 192L225 190L227 190ZM212 190L212 192L210 192L210 190L212 190ZM227 205L227 207L225 207L225 205L227 205ZM212 205L212 207L210 207L210 205L212 205ZM197 160L197 162L195 162L195 160L197 160ZM182 160L182 162L180 162L180 160L182 160ZM197 175L197 177L195 177L195 175L197 175ZM182 175L182 177L180 177L180 175L182 175ZM167 160L167 162L165 162L165 160L167 160ZM152 160L152 162L150 162L150 160L152 160ZM167 175L167 177L165 177L165 175L167 175ZM197 190L197 192L195 192L195 190L197 190ZM182 190L182 192L180 192L180 190L182 190ZM197 205L197 207L195 207L195 205L197 205ZM257 220L257 222L255 222L255 220L257 220ZM242 220L242 222L240 222L240 220L242 220ZM257 235L257 237L255 237L255 235L257 235ZM242 235L242 237L240 237L240 235L242 235ZM227 220L227 222L225 222L225 220L227 220ZM212 220L212 222L210 222L210 220L212 220ZM227 235L227 237L225 237L225 235L227 235ZM257 250L257 252L255 252L255 250L257 250ZM242 250L242 252L240 252L240 250L242 250ZM257 265L257 267L255 267L255 265L257 265ZM287 280L287 282L285 282L285 280L287 280ZM272 280L272 282L270 282L270 280L272 280ZM287 295L287 297L285 297L285 295L287 295Z"/></svg>