<svg xmlns="http://www.w3.org/2000/svg" width="117" height="117" version="1.1" id="svg6"><style id="style2"/><path d="M10 10h2v2h-2zm0 15h2v2h-2zm15-15h2v2h-2zm0 15h2v2h-2zM10 40h2v2h-2zm0 15h2v2h-2zm15-15h2v2h-2zm0 15h2v2h-2zM10 70h2v2h-2zm0 15h2v2h-2zm15-15h2v2h-2zm0 15h2v2h-2zm-15 15h2v2h-2zm0 15h2v2h-2zm15-15h2v2h-2zm15-90h2v2h-2zm0 15h2v2h-2zm15-15h2v2h-2zm0 15h2v2h-2zm15-15h2v2h-2zm0 15h2v2h-2zm15-15h2v2h-2zm0 15h2v2h-2zm15-15h2v2h-2zm0 15h2v2h-2zm15-15h2v2h-2zM40 40h2v2h-2zm0 15h2v2h-2zm15-15h2v2h-2zm0 15h2v2h-2zM40 70h2v2h-2zm0 15h2v2h-2zm15-15h2v2h-2zm15-30h2v2h-2zm0 15h2v2h-2zm15-15h2v2h-2z" id="path4" fill="#00b951"/><path id="path4522" d="M10 10h2v2h-2zm0 15h2v2h-2zm15-15h2v2h-2zm0 15h2v2h-2zM10 40h2v2h-2zm0 15h2v2h-2zm15-15h2v2h-2zm0 15h2v2h-2zM10 70h2v2h-2zm0 15h2v2h-2zm15-15h2v2h-2zm0 15h2v2h-2zm-15 15h2v2h-2zm0 15h2v2h-2zm15-15h2v2h-2zm15-90h2v2h-2zm0 15h2v2h-2zm15-15h2v2h-2zm0 15h2v2h-2zm15-15h2v2h-2zm0 15h2v2h-2zm15-15h2v2h-2zm0 15h2v2h-2zm15-15h2v2h-2zm0 15h2v2h-2zm15-15h2v2h-2zM40 40h2v2h-2zm0 15h2v2h-2zm15-15h2v2h-2zm0 15h2v2h-2zM40 70h2v2h-2zm0 15h2v2h-2zm15-15h2v2h-2zm15-30h2v2h-2zm0 15h2v2h-2zm15-15h2v2h-2z" fill="#00b951"/></svg>